<mxfile host="Electron" modified="2023-12-24T14:01:13.141Z" agent="Mozilla/5.0 (Windows NT 10.0; Win64; x64) AppleWebKit/537.36 (KHTML, like Gecko) draw.io/22.1.2 Chrome/114.0.5735.289 Electron/25.9.4 Safari/537.36" etag="yRhuTfWjwgAJkkWgUlpE" version="22.1.2" type="device">
  <diagram name="Page-1" id="As-dp2-VB6OfrZk8hY36">
    <mxGraphModel dx="1493" dy="913" grid="1" gridSize="10" guides="1" tooltips="1" connect="1" arrows="1" fold="1" page="1" pageScale="1" pageWidth="1169" pageHeight="1654" math="0" shadow="0">
      <root>
        <mxCell id="0" />
        <mxCell id="1" parent="0" />
        <mxCell id="GO0jnVY90JyI2qFWSSCn-3" value="Application de gestion de rendez-vous" style="swimlane;whiteSpace=wrap;html=1;" parent="1" vertex="1">
          <mxGeometry x="140" y="20" width="600" height="1400" as="geometry" />
        </mxCell>
        <mxCell id="GO0jnVY90JyI2qFWSSCn-9" value="Fournir ses disponibilités" style="ellipse;whiteSpace=wrap;html=1;" parent="GO0jnVY90JyI2qFWSSCn-3" vertex="1">
          <mxGeometry x="15" y="30" width="120" height="80" as="geometry" />
        </mxCell>
        <mxCell id="GO0jnVY90JyI2qFWSSCn-23" value="Vérifier les informations d&#39;un patient" style="ellipse;whiteSpace=wrap;html=1;" parent="GO0jnVY90JyI2qFWSSCn-3" vertex="1">
          <mxGeometry x="148" y="60" width="120" height="80" as="geometry" />
        </mxCell>
        <mxCell id="GO0jnVY90JyI2qFWSSCn-39" value="&amp;lt;&amp;lt;extend&amp;gt;&amp;gt;" style="text;html=1;align=center;verticalAlign=middle;resizable=0;points=[];autosize=1;strokeColor=none;fillColor=none;" parent="GO0jnVY90JyI2qFWSSCn-3" vertex="1">
          <mxGeometry x="177" y="140" width="90" height="30" as="geometry" />
        </mxCell>
        <mxCell id="GO0jnVY90JyI2qFWSSCn-47" value="Mentionner une prescription" style="ellipse;whiteSpace=wrap;html=1;fillColor=#d5e8d4;strokeColor=#82b366;" parent="GO0jnVY90JyI2qFWSSCn-3" vertex="1">
          <mxGeometry x="392" y="370" width="120" height="80" as="geometry" />
        </mxCell>
        <mxCell id="GO0jnVY90JyI2qFWSSCn-53" value="Encoder sa &lt;br&gt;prestation" style="ellipse;whiteSpace=wrap;html=1;fillColor=#d5e8d4;strokeColor=#82b366;" parent="GO0jnVY90JyI2qFWSSCn-3" vertex="1">
          <mxGeometry x="376" y="285" width="120" height="80" as="geometry" />
        </mxCell>
        <mxCell id="GO0jnVY90JyI2qFWSSCn-57" value="&amp;lt;&amp;lt;include&amp;gt;&amp;gt;" style="text;html=1;align=center;verticalAlign=middle;resizable=0;points=[];autosize=1;strokeColor=none;fillColor=none;fontColor=#00CC00;" parent="GO0jnVY90JyI2qFWSSCn-3" vertex="1">
          <mxGeometry x="212" y="350" width="90" height="30" as="geometry" />
        </mxCell>
        <mxCell id="GO0jnVY90JyI2qFWSSCn-76" value="&amp;lt;&amp;lt;include&amp;gt;&amp;gt;" style="text;html=1;align=center;verticalAlign=middle;resizable=0;points=[];autosize=1;strokeColor=none;fillColor=none;labelBackgroundColor=default;fontColor=#00CC00;" parent="GO0jnVY90JyI2qFWSSCn-3" vertex="1">
          <mxGeometry x="276" y="415" width="90" height="30" as="geometry" />
        </mxCell>
        <mxCell id="GO0jnVY90JyI2qFWSSCn-25" value="Envoyer un email au patient avec un code d&#39;accès" style="ellipse;whiteSpace=wrap;html=1;" parent="GO0jnVY90JyI2qFWSSCn-3" vertex="1">
          <mxGeometry x="350" y="50" width="130" height="80" as="geometry" />
        </mxCell>
        <mxCell id="GO0jnVY90JyI2qFWSSCn-27" value="&amp;lt;&amp;lt;include&amp;gt;&amp;gt;" style="text;html=1;align=center;verticalAlign=middle;resizable=0;points=[];autosize=1;strokeColor=none;fillColor=none;" parent="GO0jnVY90JyI2qFWSSCn-3" vertex="1">
          <mxGeometry x="260" y="55" width="90" height="30" as="geometry" />
        </mxCell>
        <mxCell id="GO0jnVY90JyI2qFWSSCn-26" value="" style="endArrow=open;dashed=1;html=1;rounded=0;exitX=1;exitY=0.5;exitDx=0;exitDy=0;entryX=0;entryY=0.5;entryDx=0;entryDy=0;endFill=0;" parent="GO0jnVY90JyI2qFWSSCn-3" target="GO0jnVY90JyI2qFWSSCn-25" edge="1" source="GO0jnVY90JyI2qFWSSCn-23">
          <mxGeometry width="50" height="50" relative="1" as="geometry">
            <mxPoint x="170" y="160" as="sourcePoint" />
            <mxPoint x="190" y="160" as="targetPoint" />
          </mxGeometry>
        </mxCell>
        <mxCell id="GO0jnVY90JyI2qFWSSCn-30" value="Enregistrer la prescription &lt;font color=&quot;#00cc00&quot;&gt;fournie par le patient&lt;/font&gt;" style="ellipse;whiteSpace=wrap;html=1;" parent="GO0jnVY90JyI2qFWSSCn-3" vertex="1">
          <mxGeometry x="77" y="170" width="120" height="80" as="geometry" />
        </mxCell>
        <mxCell id="GO0jnVY90JyI2qFWSSCn-37" value="Créer le médecin" style="ellipse;whiteSpace=wrap;html=1;" parent="GO0jnVY90JyI2qFWSSCn-3" vertex="1">
          <mxGeometry x="274" y="125" width="120" height="80" as="geometry" />
        </mxCell>
        <mxCell id="GO0jnVY90JyI2qFWSSCn-38" value="" style="endArrow=open;dashed=1;html=1;rounded=0;exitX=0;exitY=0.5;exitDx=0;exitDy=0;entryX=1;entryY=0;entryDx=0;entryDy=0;endFill=0;" parent="GO0jnVY90JyI2qFWSSCn-3" source="GO0jnVY90JyI2qFWSSCn-37" target="GO0jnVY90JyI2qFWSSCn-30" edge="1">
          <mxGeometry width="50" height="50" relative="1" as="geometry">
            <mxPoint x="380" y="290" as="sourcePoint" />
            <mxPoint x="332.42640687119297" y="278.28427124746224" as="targetPoint" />
          </mxGeometry>
        </mxCell>
        <mxCell id="GO0jnVY90JyI2qFWSSCn-43" value="&lt;font color=&quot;#ff0000&quot;&gt;&lt;strike&gt;Effectuer&lt;br&gt;rendez-vous&lt;/strike&gt;&lt;/font&gt;&lt;br&gt;&lt;font color=&quot;#00cc00&quot;&gt;Indiquer&lt;br&gt;rendez-vous&lt;br&gt;effectué&lt;/font&gt;" style="ellipse;whiteSpace=wrap;html=1;" parent="GO0jnVY90JyI2qFWSSCn-3" vertex="1">
          <mxGeometry x="135" y="260" width="120" height="80" as="geometry" />
        </mxCell>
        <mxCell id="GO0jnVY90JyI2qFWSSCn-56" value="" style="endArrow=open;dashed=1;html=1;rounded=0;exitX=1;exitY=1;exitDx=0;exitDy=0;entryX=0;entryY=0.5;entryDx=0;entryDy=0;endFill=0;strokeColor=#00CC00;" parent="GO0jnVY90JyI2qFWSSCn-3" source="GO0jnVY90JyI2qFWSSCn-43" target="GO0jnVY90JyI2qFWSSCn-47" edge="1">
          <mxGeometry width="50" height="50" relative="1" as="geometry">
            <mxPoint x="90" y="420" as="sourcePoint" />
            <mxPoint x="160" y="420" as="targetPoint" />
            <Array as="points" />
          </mxGeometry>
        </mxCell>
        <mxCell id="GO0jnVY90JyI2qFWSSCn-54" value="" style="endArrow=open;dashed=1;html=1;rounded=0;exitX=1;exitY=0.5;exitDx=0;exitDy=0;entryX=0;entryY=0.5;entryDx=0;entryDy=0;endFill=0;strokeColor=#00CC00;" parent="GO0jnVY90JyI2qFWSSCn-3" edge="1" target="GO0jnVY90JyI2qFWSSCn-53" source="GO0jnVY90JyI2qFWSSCn-43">
          <mxGeometry width="50" height="50" relative="1" as="geometry">
            <mxPoint x="170" y="340" as="sourcePoint" />
            <mxPoint x="240" y="340" as="targetPoint" />
          </mxGeometry>
        </mxCell>
        <mxCell id="GO0jnVY90JyI2qFWSSCn-55" value="&amp;lt;&amp;lt;include&amp;gt;&amp;gt;" style="text;html=1;align=center;verticalAlign=middle;resizable=0;points=[];autosize=1;strokeColor=none;fillColor=none;fontColor=#00CC00;" parent="GO0jnVY90JyI2qFWSSCn-3" vertex="1">
          <mxGeometry x="276" y="285" width="90" height="30" as="geometry" />
        </mxCell>
        <mxCell id="GO0jnVY90JyI2qFWSSCn-60" value="Annuler un &lt;br&gt;rendez-vous" style="ellipse;whiteSpace=wrap;html=1;" parent="GO0jnVY90JyI2qFWSSCn-3" vertex="1">
          <mxGeometry x="156" y="370" width="120" height="75" as="geometry" />
        </mxCell>
        <mxCell id="GO0jnVY90JyI2qFWSSCn-62" value="" style="endArrow=open;dashed=1;html=1;rounded=0;exitX=1;exitY=0.5;exitDx=0;exitDy=0;entryX=0.002;entryY=0.63;entryDx=0;entryDy=0;endFill=0;entryPerimeter=0;fillColor=#d5e8d4;strokeColor=#00CC00;" parent="GO0jnVY90JyI2qFWSSCn-3" source="GO0jnVY90JyI2qFWSSCn-60" target="GO0jnVY90JyI2qFWSSCn-47" edge="1">
          <mxGeometry width="50" height="50" relative="1" as="geometry">
            <mxPoint x="148" y="387" as="sourcePoint" />
            <mxPoint x="228" y="422" as="targetPoint" />
          </mxGeometry>
        </mxCell>
        <mxCell id="GO0jnVY90JyI2qFWSSCn-63" value="" style="endArrow=open;dashed=1;html=1;rounded=0;exitX=1;exitY=0;exitDx=0;exitDy=0;entryX=0;entryY=1;entryDx=0;entryDy=0;endFill=0;strokeColor=#00CC00;" parent="GO0jnVY90JyI2qFWSSCn-3" source="GO0jnVY90JyI2qFWSSCn-60" target="GO0jnVY90JyI2qFWSSCn-53" edge="1">
          <mxGeometry width="50" height="50" relative="1" as="geometry">
            <mxPoint x="180" y="470" as="sourcePoint" />
            <mxPoint x="210" y="460" as="targetPoint" />
          </mxGeometry>
        </mxCell>
        <mxCell id="XrmAkOISCD9gcj57E6b0-2" value="&amp;lt;&amp;lt;include&amp;gt;&amp;gt;" style="text;html=1;align=center;verticalAlign=middle;resizable=0;points=[];autosize=1;strokeColor=none;fillColor=none;fontColor=#00CC00;" vertex="1" parent="GO0jnVY90JyI2qFWSSCn-3">
          <mxGeometry x="276" y="330" width="90" height="30" as="geometry" />
        </mxCell>
        <mxCell id="GO0jnVY90JyI2qFWSSCn-106" value="Délivrer une attestation de soin" style="ellipse;whiteSpace=wrap;html=1;" parent="GO0jnVY90JyI2qFWSSCn-3" vertex="1">
          <mxGeometry x="10" y="590" width="120" height="80" as="geometry" />
        </mxCell>
        <mxCell id="XrmAkOISCD9gcj57E6b0-3" value="&lt;font color=&quot;#ff0000&quot;&gt;Renseigner&lt;br&gt;le médecin&lt;/font&gt;" style="ellipse;whiteSpace=wrap;html=1;fillColor=#f8cecc;strokeColor=#b85450;" vertex="1" parent="GO0jnVY90JyI2qFWSSCn-3">
          <mxGeometry x="385" y="200" width="120" height="80" as="geometry" />
        </mxCell>
        <mxCell id="GO0jnVY90JyI2qFWSSCn-81" value="Visualiser ses prescriptions" style="ellipse;whiteSpace=wrap;html=1;" parent="GO0jnVY90JyI2qFWSSCn-3" vertex="1">
          <mxGeometry x="51" y="1105" width="120" height="80" as="geometry" />
        </mxCell>
        <mxCell id="GO0jnVY90JyI2qFWSSCn-85" value="Visualiser les séances déjà effectuées et les séances futures" style="ellipse;whiteSpace=wrap;html=1;" parent="GO0jnVY90JyI2qFWSSCn-3" vertex="1">
          <mxGeometry x="51" y="1195" width="120" height="80" as="geometry" />
        </mxCell>
        <mxCell id="GO0jnVY90JyI2qFWSSCn-17" value="&lt;font color=&quot;#00cc00&quot;&gt;Créer un nouveau patient&lt;/font&gt;" style="ellipse;whiteSpace=wrap;html=1;fillColor=#d5e8d4;strokeColor=#82b366;" parent="GO0jnVY90JyI2qFWSSCn-3" vertex="1">
          <mxGeometry x="246" y="710" width="120" height="80" as="geometry" />
        </mxCell>
        <mxCell id="GO0jnVY90JyI2qFWSSCn-18" value="" style="endArrow=open;dashed=1;html=1;rounded=0;exitX=0;exitY=0.5;exitDx=0;exitDy=0;entryX=1;entryY=0.5;entryDx=0;entryDy=0;endFill=0;strokeColor=#00CC00;" parent="GO0jnVY90JyI2qFWSSCn-3" source="GO0jnVY90JyI2qFWSSCn-17" edge="1">
          <mxGeometry width="50" height="50" relative="1" as="geometry">
            <mxPoint x="196" y="750" as="sourcePoint" />
            <mxPoint x="176" y="750" as="targetPoint" />
          </mxGeometry>
        </mxCell>
        <mxCell id="GO0jnVY90JyI2qFWSSCn-19" value="&lt;font color=&quot;#00cc00&quot;&gt;&amp;lt;&amp;lt;extend&amp;gt;&amp;gt;&lt;/font&gt;" style="text;html=1;align=center;verticalAlign=middle;resizable=0;points=[];autosize=1;strokeColor=none;fillColor=none;" parent="GO0jnVY90JyI2qFWSSCn-3" vertex="1">
          <mxGeometry x="169" y="752" width="90" height="30" as="geometry" />
        </mxCell>
        <mxCell id="GO0jnVY90JyI2qFWSSCn-77" value="Signaler quand le paiement a été effectué" style="ellipse;whiteSpace=wrap;html=1;" parent="GO0jnVY90JyI2qFWSSCn-3" vertex="1">
          <mxGeometry x="51" y="792" width="120" height="80" as="geometry" />
        </mxCell>
        <mxCell id="GO0jnVY90JyI2qFWSSCn-79" value="Modifier un &lt;br&gt;rendez-vous" style="ellipse;whiteSpace=wrap;html=1;" parent="GO0jnVY90JyI2qFWSSCn-3" vertex="1">
          <mxGeometry x="296" y="895" width="120" height="80" as="geometry" />
        </mxCell>
        <mxCell id="GO0jnVY90JyI2qFWSSCn-84" value="Visualiser &lt;font color=&quot;#00cc00&quot;&gt;pour chaque patient la liste des&lt;/font&gt; rdv &lt;font color=&quot;#00cc00&quot;&gt;passés et futurs&lt;/font&gt;" style="ellipse;whiteSpace=wrap;html=1;" parent="GO0jnVY90JyI2qFWSSCn-3" vertex="1">
          <mxGeometry x="272" y="1015" width="120" height="80" as="geometry" />
        </mxCell>
        <mxCell id="GO0jnVY90JyI2qFWSSCn-87" value="Modifier les infos &lt;br&gt;d&#39;un patient" style="ellipse;whiteSpace=wrap;html=1;" parent="GO0jnVY90JyI2qFWSSCn-3" vertex="1">
          <mxGeometry x="182" y="835" width="120" height="80" as="geometry" />
        </mxCell>
        <mxCell id="GO0jnVY90JyI2qFWSSCn-90" value="&lt;font color=&quot;#00cc00&quot;&gt;Voir si les rendez-vous ont été payés&lt;/font&gt;" style="ellipse;whiteSpace=wrap;html=1;fillColor=#d5e8d4;strokeColor=#82b366;" parent="GO0jnVY90JyI2qFWSSCn-3" vertex="1">
          <mxGeometry x="376" y="965" width="120" height="80" as="geometry" />
        </mxCell>
        <mxCell id="GO0jnVY90JyI2qFWSSCn-96" value="Visualiser &lt;font color=&quot;#00cc00&quot;&gt;tous les&lt;/font&gt; patients &lt;font color=&quot;#00cc00&quot;&gt;du cabinet&lt;/font&gt;" style="ellipse;whiteSpace=wrap;html=1;" parent="GO0jnVY90JyI2qFWSSCn-3" vertex="1">
          <mxGeometry x="21" y="1025" width="120" height="80" as="geometry" />
        </mxCell>
        <mxCell id="GO0jnVY90JyI2qFWSSCn-10" value="Secrétaire" style="shape=umlActor;verticalLabelPosition=bottom;verticalAlign=top;html=1;outlineConnect=0;" parent="GO0jnVY90JyI2qFWSSCn-3" vertex="1">
          <mxGeometry x="-84" y="830" width="40" height="80" as="geometry" />
        </mxCell>
        <mxCell id="GO0jnVY90JyI2qFWSSCn-11" value="Enregistrer un rendez-vous" style="ellipse;whiteSpace=wrap;html=1;" parent="GO0jnVY90JyI2qFWSSCn-3" vertex="1">
          <mxGeometry x="56" y="710" width="120" height="80" as="geometry" />
        </mxCell>
        <mxCell id="GO0jnVY90JyI2qFWSSCn-12" value="" style="endArrow=none;html=1;rounded=0;entryX=0;entryY=0.5;entryDx=0;entryDy=0;" parent="GO0jnVY90JyI2qFWSSCn-3" target="GO0jnVY90JyI2qFWSSCn-11" edge="1">
          <mxGeometry width="50" height="50" relative="1" as="geometry">
            <mxPoint x="-44" y="865" as="sourcePoint" />
            <mxPoint x="66" y="900" as="targetPoint" />
          </mxGeometry>
        </mxCell>
        <mxCell id="GO0jnVY90JyI2qFWSSCn-78" value="" style="endArrow=none;html=1;rounded=0;entryX=0;entryY=0.5;entryDx=0;entryDy=0;" parent="GO0jnVY90JyI2qFWSSCn-3" target="GO0jnVY90JyI2qFWSSCn-77" edge="1">
          <mxGeometry width="50" height="50" relative="1" as="geometry">
            <mxPoint x="-44" y="865" as="sourcePoint" />
            <mxPoint x="66" y="880" as="targetPoint" />
          </mxGeometry>
        </mxCell>
        <mxCell id="GO0jnVY90JyI2qFWSSCn-82" value="" style="endArrow=none;html=1;rounded=0;entryX=0;entryY=0;entryDx=0;entryDy=0;" parent="GO0jnVY90JyI2qFWSSCn-3" target="GO0jnVY90JyI2qFWSSCn-80" edge="1">
          <mxGeometry width="50" height="50" relative="1" as="geometry">
            <mxPoint x="-44" y="865" as="sourcePoint" />
            <mxPoint x="84" y="897" as="targetPoint" />
          </mxGeometry>
        </mxCell>
        <mxCell id="GO0jnVY90JyI2qFWSSCn-83" value="" style="endArrow=none;html=1;rounded=0;entryX=0;entryY=0.5;entryDx=0;entryDy=0;" parent="GO0jnVY90JyI2qFWSSCn-3" target="GO0jnVY90JyI2qFWSSCn-79" edge="1">
          <mxGeometry width="50" height="50" relative="1" as="geometry">
            <mxPoint x="-44" y="865" as="sourcePoint" />
            <mxPoint x="66" y="1022" as="targetPoint" />
          </mxGeometry>
        </mxCell>
        <mxCell id="GO0jnVY90JyI2qFWSSCn-86" value="" style="endArrow=none;html=1;rounded=0;entryX=0;entryY=0;entryDx=0;entryDy=0;" parent="GO0jnVY90JyI2qFWSSCn-3" target="GO0jnVY90JyI2qFWSSCn-84" edge="1">
          <mxGeometry width="50" height="50" relative="1" as="geometry">
            <mxPoint x="-44" y="865" as="sourcePoint" />
            <mxPoint x="226" y="975" as="targetPoint" />
          </mxGeometry>
        </mxCell>
        <mxCell id="GO0jnVY90JyI2qFWSSCn-89" value="" style="endArrow=none;html=1;rounded=0;entryX=0.033;entryY=0.651;entryDx=0;entryDy=0;entryPerimeter=0;" parent="GO0jnVY90JyI2qFWSSCn-3" target="GO0jnVY90JyI2qFWSSCn-87" edge="1">
          <mxGeometry width="50" height="50" relative="1" as="geometry">
            <mxPoint x="-44" y="865" as="sourcePoint" />
            <mxPoint x="306" y="1015" as="targetPoint" />
          </mxGeometry>
        </mxCell>
        <mxCell id="GO0jnVY90JyI2qFWSSCn-91" value="" style="endArrow=none;html=1;rounded=0;entryX=0;entryY=0.5;entryDx=0;entryDy=0;strokeColor=#00CC00;" parent="GO0jnVY90JyI2qFWSSCn-3" target="GO0jnVY90JyI2qFWSSCn-90" edge="1">
          <mxGeometry width="50" height="50" relative="1" as="geometry">
            <mxPoint x="-44" y="865" as="sourcePoint" />
            <mxPoint x="386" y="1005" as="targetPoint" />
          </mxGeometry>
        </mxCell>
        <mxCell id="GO0jnVY90JyI2qFWSSCn-97" value="" style="endArrow=none;html=1;rounded=0;entryX=0.5;entryY=0;entryDx=0;entryDy=0;" parent="GO0jnVY90JyI2qFWSSCn-3" target="GO0jnVY90JyI2qFWSSCn-96" edge="1">
          <mxGeometry width="50" height="50" relative="1" as="geometry">
            <mxPoint x="-44" y="865" as="sourcePoint" />
            <mxPoint x="134" y="1037" as="targetPoint" />
          </mxGeometry>
        </mxCell>
        <mxCell id="GO0jnVY90JyI2qFWSSCn-80" value="Supprimer un &lt;br&gt;rendez-vous" style="ellipse;whiteSpace=wrap;html=1;" parent="GO0jnVY90JyI2qFWSSCn-3" vertex="1">
          <mxGeometry x="147" y="1019" width="120" height="80" as="geometry" />
        </mxCell>
        <mxCell id="XrmAkOISCD9gcj57E6b0-5" value="" style="endArrow=open;dashed=1;html=1;rounded=0;exitX=1;exitY=1;exitDx=0;exitDy=0;entryX=0;entryY=0.5;entryDx=0;entryDy=0;endFill=0;strokeColor=#FF0000;" edge="1" parent="GO0jnVY90JyI2qFWSSCn-3" source="GO0jnVY90JyI2qFWSSCn-30" target="XrmAkOISCD9gcj57E6b0-3">
          <mxGeometry width="50" height="50" relative="1" as="geometry">
            <mxPoint x="278" y="110" as="sourcePoint" />
            <mxPoint x="360" y="100" as="targetPoint" />
          </mxGeometry>
        </mxCell>
        <mxCell id="XrmAkOISCD9gcj57E6b0-9" value="&lt;font style=&quot;font-size: 20px;&quot; color=&quot;#ff0000&quot;&gt;X&lt;/font&gt;" style="edgeLabel;html=1;align=center;verticalAlign=middle;resizable=0;points=[];" vertex="1" connectable="0" parent="XrmAkOISCD9gcj57E6b0-5">
          <mxGeometry x="0.0244" y="2" relative="1" as="geometry">
            <mxPoint y="1" as="offset" />
          </mxGeometry>
        </mxCell>
        <mxCell id="XrmAkOISCD9gcj57E6b0-6" value="&lt;font color=&quot;#ff0000&quot;&gt;&lt;strike&gt;&amp;lt;&amp;lt;include&amp;gt;&amp;gt;&lt;/strike&gt;&lt;/font&gt;" style="text;html=1;align=center;verticalAlign=middle;resizable=0;points=[];autosize=1;strokeColor=none;fillColor=none;" vertex="1" parent="GO0jnVY90JyI2qFWSSCn-3">
          <mxGeometry x="237" y="205" width="90" height="30" as="geometry" />
        </mxCell>
        <mxCell id="XrmAkOISCD9gcj57E6b0-12" value="&lt;font color=&quot;#ff0000&quot;&gt;Encoder sa &lt;br&gt;prestation&lt;/font&gt;" style="ellipse;whiteSpace=wrap;html=1;fillColor=#f8cecc;strokeColor=#b85450;" vertex="1" parent="GO0jnVY90JyI2qFWSSCn-3">
          <mxGeometry x="100" y="525" width="120" height="80" as="geometry" />
        </mxCell>
        <mxCell id="XrmAkOISCD9gcj57E6b0-13" value="&lt;font color=&quot;#ff0000&quot;&gt;Mentionner une prescription&lt;/font&gt;" style="ellipse;whiteSpace=wrap;html=1;fillColor=#f8cecc;strokeColor=#b85450;" vertex="1" parent="GO0jnVY90JyI2qFWSSCn-3">
          <mxGeometry x="156" y="445" width="120" height="80" as="geometry" />
        </mxCell>
        <mxCell id="XrmAkOISCD9gcj57E6b0-19" value="&lt;font color=&quot;#ff0000&quot;&gt;Se connecter&lt;/font&gt;" style="ellipse;whiteSpace=wrap;html=1;fillColor=#f8cecc;strokeColor=#b85450;" vertex="1" parent="GO0jnVY90JyI2qFWSSCn-3">
          <mxGeometry x="62" y="1290" width="120" height="80" as="geometry" />
        </mxCell>
        <mxCell id="GO0jnVY90JyI2qFWSSCn-4" value="Kinésithérapeute" style="shape=umlActor;verticalLabelPosition=bottom;verticalAlign=top;html=1;outlineConnect=0;" parent="1" vertex="1">
          <mxGeometry x="50" y="270" width="40" height="80" as="geometry" />
        </mxCell>
        <mxCell id="GO0jnVY90JyI2qFWSSCn-8" value="" style="endArrow=none;html=1;rounded=0;exitX=1;exitY=0.3333333333333333;exitDx=0;exitDy=0;exitPerimeter=0;entryX=0;entryY=0.5;entryDx=0;entryDy=0;" parent="1" source="GO0jnVY90JyI2qFWSSCn-4" target="GO0jnVY90JyI2qFWSSCn-9" edge="1">
          <mxGeometry width="50" height="50" relative="1" as="geometry">
            <mxPoint x="150" y="230" as="sourcePoint" />
            <mxPoint x="200" y="180" as="targetPoint" />
          </mxGeometry>
        </mxCell>
        <mxCell id="GO0jnVY90JyI2qFWSSCn-24" value="" style="endArrow=none;html=1;rounded=0;exitX=1;exitY=0.3333333333333333;exitDx=0;exitDy=0;exitPerimeter=0;entryX=0;entryY=0.5;entryDx=0;entryDy=0;" parent="1" source="GO0jnVY90JyI2qFWSSCn-4" target="GO0jnVY90JyI2qFWSSCn-23" edge="1">
          <mxGeometry width="50" height="50" relative="1" as="geometry">
            <mxPoint x="100" y="217" as="sourcePoint" />
            <mxPoint x="200" y="160" as="targetPoint" />
          </mxGeometry>
        </mxCell>
        <mxCell id="GO0jnVY90JyI2qFWSSCn-31" value="" style="endArrow=none;html=1;rounded=0;entryX=0;entryY=0.5;entryDx=0;entryDy=0;exitX=1;exitY=0.3333333333333333;exitDx=0;exitDy=0;exitPerimeter=0;" parent="1" target="GO0jnVY90JyI2qFWSSCn-30" edge="1" source="GO0jnVY90JyI2qFWSSCn-4">
          <mxGeometry width="50" height="50" relative="1" as="geometry">
            <mxPoint x="90" y="210" as="sourcePoint" />
            <mxPoint x="200" y="190" as="targetPoint" />
          </mxGeometry>
        </mxCell>
        <mxCell id="GO0jnVY90JyI2qFWSSCn-35" value="&amp;lt;&amp;lt;actor&amp;gt;&amp;gt;&lt;br&gt;&lt;div&gt;Annuaire des&amp;nbsp;&lt;/div&gt;&lt;div&gt;médecins de&lt;/div&gt;&lt;div&gt;Belgique&lt;/div&gt;" style="rounded=1;whiteSpace=wrap;html=1;" parent="1" vertex="1">
          <mxGeometry x="780" y="150" width="130" height="70" as="geometry" />
        </mxCell>
        <mxCell id="GO0jnVY90JyI2qFWSSCn-36" value="" style="endArrow=none;html=1;rounded=0;entryX=0;entryY=0.5;entryDx=0;entryDy=0;exitX=1;exitY=0.5;exitDx=0;exitDy=0;" parent="1" source="GO0jnVY90JyI2qFWSSCn-37" target="GO0jnVY90JyI2qFWSSCn-35" edge="1">
          <mxGeometry width="50" height="50" relative="1" as="geometry">
            <mxPoint x="600" y="330" as="sourcePoint" />
            <mxPoint x="650" y="260" as="targetPoint" />
          </mxGeometry>
        </mxCell>
        <mxCell id="GO0jnVY90JyI2qFWSSCn-44" value="" style="endArrow=none;html=1;rounded=0;entryX=0;entryY=0.5;entryDx=0;entryDy=0;exitX=1;exitY=0.3333333333333333;exitDx=0;exitDy=0;exitPerimeter=0;" parent="1" source="GO0jnVY90JyI2qFWSSCn-4" target="GO0jnVY90JyI2qFWSSCn-43" edge="1">
          <mxGeometry width="50" height="50" relative="1" as="geometry">
            <mxPoint x="110" y="200" as="sourcePoint" />
            <mxPoint x="200" y="300" as="targetPoint" />
          </mxGeometry>
        </mxCell>
        <mxCell id="GO0jnVY90JyI2qFWSSCn-51" value="" style="endArrow=block;html=1;rounded=0;endFill=0;strokeColor=#00CC00;" parent="1" edge="1">
          <mxGeometry width="50" height="50" relative="1" as="geometry">
            <mxPoint x="69.47" y="380" as="sourcePoint" />
            <mxPoint x="69.47" y="830" as="targetPoint" />
          </mxGeometry>
        </mxCell>
        <mxCell id="GO0jnVY90JyI2qFWSSCn-61" value="" style="endArrow=none;html=1;rounded=0;entryX=0;entryY=0;entryDx=0;entryDy=0;exitX=1;exitY=0.3333333333333333;exitDx=0;exitDy=0;exitPerimeter=0;" parent="1" source="GO0jnVY90JyI2qFWSSCn-4" target="GO0jnVY90JyI2qFWSSCn-60" edge="1">
          <mxGeometry width="50" height="50" relative="1" as="geometry">
            <mxPoint x="100" y="217" as="sourcePoint" />
            <mxPoint x="218" y="342" as="targetPoint" />
          </mxGeometry>
        </mxCell>
        <mxCell id="GO0jnVY90JyI2qFWSSCn-107" value="" style="endArrow=none;html=1;rounded=0;entryX=0;entryY=0;entryDx=0;entryDy=0;exitX=1;exitY=0.3333333333333333;exitDx=0;exitDy=0;exitPerimeter=0;" parent="1" target="GO0jnVY90JyI2qFWSSCn-106" edge="1" source="GO0jnVY90JyI2qFWSSCn-4">
          <mxGeometry width="50" height="50" relative="1" as="geometry">
            <mxPoint x="90" y="210" as="sourcePoint" />
            <mxPoint x="218" y="462" as="targetPoint" />
          </mxGeometry>
        </mxCell>
        <mxCell id="XrmAkOISCD9gcj57E6b0-11" value="" style="endArrow=none;html=1;rounded=0;exitX=1;exitY=0.3333333333333333;exitDx=0;exitDy=0;exitPerimeter=0;entryX=0;entryY=0;entryDx=0;entryDy=0;" edge="1" parent="1" source="GO0jnVY90JyI2qFWSSCn-4" target="XrmAkOISCD9gcj57E6b0-12">
          <mxGeometry width="50" height="50" relative="1" as="geometry">
            <mxPoint x="386" y="550" as="sourcePoint" />
            <mxPoint x="230" y="540" as="targetPoint" />
          </mxGeometry>
        </mxCell>
        <mxCell id="XrmAkOISCD9gcj57E6b0-14" value="" style="endArrow=none;html=1;rounded=0;exitX=1;exitY=0.3333333333333333;exitDx=0;exitDy=0;exitPerimeter=0;entryX=0;entryY=0.5;entryDx=0;entryDy=0;" edge="1" parent="1" source="GO0jnVY90JyI2qFWSSCn-4" target="XrmAkOISCD9gcj57E6b0-13">
          <mxGeometry width="50" height="50" relative="1" as="geometry">
            <mxPoint x="100" y="307" as="sourcePoint" />
            <mxPoint x="217" y="552" as="targetPoint" />
          </mxGeometry>
        </mxCell>
        <mxCell id="GO0jnVY90JyI2qFWSSCn-50" value="Patient" style="shape=umlActor;verticalLabelPosition=bottom;verticalAlign=top;html=1;outlineConnect=0;" parent="1" vertex="1">
          <mxGeometry x="56" y="1170" width="40" height="80" as="geometry" />
        </mxCell>
        <mxCell id="GO0jnVY90JyI2qFWSSCn-93" value="" style="endArrow=none;html=1;rounded=0;exitX=1;exitY=0.3333333333333333;exitDx=0;exitDy=0;exitPerimeter=0;entryX=0;entryY=0.5;entryDx=0;entryDy=0;" parent="1" source="GO0jnVY90JyI2qFWSSCn-50" target="GO0jnVY90JyI2qFWSSCn-81" edge="1">
          <mxGeometry width="50" height="50" relative="1" as="geometry">
            <mxPoint x="101" y="855" as="sourcePoint" />
            <mxPoint x="191" y="1155" as="targetPoint" />
          </mxGeometry>
        </mxCell>
        <mxCell id="GO0jnVY90JyI2qFWSSCn-95" value="" style="endArrow=none;html=1;rounded=0;entryX=0;entryY=0.5;entryDx=0;entryDy=0;exitX=1;exitY=0.3333333333333333;exitDx=0;exitDy=0;exitPerimeter=0;" parent="1" source="GO0jnVY90JyI2qFWSSCn-50" target="GO0jnVY90JyI2qFWSSCn-85" edge="1">
          <mxGeometry width="50" height="50" relative="1" as="geometry">
            <mxPoint x="121" y="1225" as="sourcePoint" />
            <mxPoint x="207" y="1175" as="targetPoint" />
          </mxGeometry>
        </mxCell>
        <mxCell id="XrmAkOISCD9gcj57E6b0-17" value="&lt;font color=&quot;#ff0000&quot;&gt;&lt;strike&gt;Internaute&lt;/strike&gt;&lt;/font&gt;" style="shape=umlActor;verticalLabelPosition=bottom;verticalAlign=top;html=1;outlineConnect=0;fillColor=#f8cecc;strokeColor=#b85450;" vertex="1" parent="1">
          <mxGeometry x="56" y="1290" width="40" height="80" as="geometry" />
        </mxCell>
        <mxCell id="XrmAkOISCD9gcj57E6b0-18" value="" style="endArrow=none;html=1;rounded=0;exitX=1;exitY=0.3333333333333333;exitDx=0;exitDy=0;exitPerimeter=0;entryX=0;entryY=0.5;entryDx=0;entryDy=0;strokeColor=#FF0000;" edge="1" parent="1" source="XrmAkOISCD9gcj57E6b0-17" target="XrmAkOISCD9gcj57E6b0-19">
          <mxGeometry width="50" height="50" relative="1" as="geometry">
            <mxPoint x="106" y="1207" as="sourcePoint" />
            <mxPoint x="201" y="1320" as="targetPoint" />
          </mxGeometry>
        </mxCell>
      </root>
    </mxGraphModel>
  </diagram>
</mxfile>
